<?xml version="1.0" encoding="utf-8"?>
<!-- Generator: Adobe Illustrator 22.1.0, SVG Export Plug-In . SVG Version: 6.00 Build 0)  -->
<svg version="1.1" id="Layer_1" xmlns="http://www.w3.org/2000/svg" xmlns:xlink="http://www.w3.org/1999/xlink" x="0px" y="0px"
	 viewBox="0 0 108.5 106.3" style="enable-background:new 0 0 108.5 106.3;" xml:space="preserve">
<style type="text/css">
	.st0{fill:#EE312F;}
</style>
<path d="M18.6,2.9c0,0-14.3,0-14.3,14.3V89c0,0,0,14.3,14.3,14.3h71.7c0,0,14.3,0,14.3-14.3V17.3c0,0,0-14.3-14.3-14.3H18.6z"/>
<g>
	<defs>
		<rect id="SVGID_1_" x="3.3" y="1.7" width="102.4" height="102.4"/>
	</defs>
	<clipPath id="SVGID_2_">
		<use xlink:href="#SVGID_1_"  style="overflow:visible;"/>
	</clipPath>
</g>
<path class="st0" d="M68.4,44.2L68.4,44.2c-1.1,0-2.2,0-3.3,0c-1.1,0-2.2,0-3.3,0c-2.6,0.1-3.8,2.1-2.5,4.4
	c2.2,3.8,4.4,7.7,6.7,11.5c1.3,2.1,3.7,2.1,5,0c1.6-2.7,3.2-5.4,4.7-8.1c0.6-1.1,1.3-2.2,1.9-3.2c1.3-2.3,0.1-4.4-2.5-4.5
	c-0.3,0-0.6,0-0.9,0C72.3,44.2,70.3,44.2,68.4,44.2"/>
<path class="st0" d="M40.6,44.2L40.6,44.2c-2.2,0-4.4,0-6.7,0c-2.6,0-3.9,2.4-2.5,4.5c2.3,3.7,4.4,7.5,6.6,11.2
	c0.3,0.5,0.6,0.9,1.1,1.3c1.4,0.9,3,0.5,3.9-1c2.3-3.9,4.6-7.8,6.9-11.7c1-1.8,0.1-3.7-1.9-4.1c-0.5-0.1-1-0.1-1.5-0.1
	C44.4,44.2,42.5,44.2,40.6,44.2"/>
<path class="st0" d="M40.4,41.6c2.1,0,4.2,0,6.4,0c0.2,0,0.3,0,0.5,0c2.5-0.1,3.7-2.2,2.5-4.3c-2.2-3.9-4.5-7.7-6.8-11.6
	c-0.3-0.6-0.8-1-1.5-1.3c-1.4-0.5-2.7,0-3.5,1.5c-2.2,3.7-4.3,7.5-6.5,11.2c-1.4,2.3-0.2,4.4,2.5,4.4C36.1,41.7,38.2,41.6,40.4,41.6
	"/>
<path class="st0" d="M68.4,41.6L68.4,41.6c1.1,0,2.2,0,3.3,0c1.2,0,2.3,0,3.5,0c2.5-0.1,3.7-2.1,2.5-4.3c-2.2-3.9-4.6-7.8-6.8-11.7
	c-0.3-0.6-0.8-0.9-1.3-1.1c-1.4-0.5-2.7-0.1-3.6,1.4c-1.2,1.9-2.3,3.9-3.4,5.9c-1.1,1.9-2.2,3.7-3.3,5.6c-0.6,1-0.8,2.1,0,3.1
	c0.6,0.8,1.4,1.2,2.5,1.2C64,41.6,66.2,41.6,68.4,41.6"/>
<path class="st0" d="M26.6,20.2c-2.2,0-4.4,0-6.7,0c-2.6,0-3.8,2-2.6,4.3c0.7,1.4,1.6,2.7,2.3,4.1c1.4,2.4,2.8,4.9,4.3,7.3
	c1.4,2.3,3.8,2.3,5.1,0c0.3-0.6,0.7-1.1,1-1.7c1.9-3.2,3.8-6.4,5.6-9.7c1.3-2.3,0-4.3-2.6-4.3C30.9,20.2,28.8,20.2,26.6,20.2"/>
<path class="st0" d="M92.2,23.1c0-1.6-1.2-2.9-2.8-2.9c-4.6,0-9.2-0.1-13.7,0c-2.3,0-3.5,2.2-2.4,4.3c0.3,0.5,0.6,1,0.9,1.6
	c2,3.3,4,6.7,5.8,10c1,1.8,3.7,2.2,5-0.1c2.2-3.8,4.4-7.7,6.6-11.5C91.9,24,92.1,23.5,92.2,23.1"/>
<path class="st0" d="M54.5,68.3L54.5,68.3c-2.3,0-4.6,0-7,0c-1.6,0-2.7,1-2.8,2.4c-0.1,0.8,0.3,1.6,0.7,2.3c0.7,1.2,1.4,2.4,2.1,3.6
	c1.4,2.4,2.8,4.8,4.2,7.2c0.6,1.1,1.4,1.8,2.8,1.8c1.2,0,1.9-0.7,2.5-1.7c2.2-3.8,4.3-7.6,6.6-11.4c1-1.7,0.2-4.4-2.5-4.3
	C59,68.3,56.7,68.3,54.5,68.3"/>
<path class="st0" d="M54.5,65.6L54.5,65.6c2.2,0,4.4-0.1,6.6,0c2.6,0.1,3.6-2.6,2.5-4.3c-0.5-0.8-1-1.7-1.4-2.5c-1.7-3-3.5-6-5.3-9
	c-1.3-2.2-3.6-2.2-5,0c-0.9,1.4-1.7,2.9-2.6,4.4c-1.3,2.3-2.7,4.6-4,6.9c-0.4,0.7-0.7,1.3-0.6,2.1c0.2,1.4,1.3,2.3,2.8,2.3
	C49.9,65.6,52.2,65.6,54.5,65.6"/>
</svg>
