<?xml version="1.0" encoding="UTF-8" standalone="no"?>
<!-- Generator: Adobe Illustrator 22.1.0, SVG Export Plug-In . SVG Version: 6.00 Build 0)  -->

<svg
   xmlns:dc="http://purl.org/dc/elements/1.1/"
   xmlns:cc="http://creativecommons.org/ns#"
   xmlns:rdf="http://www.w3.org/1999/02/22-rdf-syntax-ns#"
   xmlns:svg="http://www.w3.org/2000/svg"
   xmlns="http://www.w3.org/2000/svg"
   xmlns:xlink="http://www.w3.org/1999/xlink"
   xmlns:sodipodi="http://sodipodi.sourceforge.net/DTD/sodipodi-0.dtd"
   xmlns:inkscape="http://www.inkscape.org/namespaces/inkscape"
   version="1.1"
   id="Layer_1"
   x="0px"
   y="0px"
   viewBox="0 0 100.3 100.4"
   xml:space="preserve"
   sodipodi:docname="icon-logo.svg"
   inkscape:version="0.92.4 (5da689c313, 2019-01-14)"
   width="100.3"
   height="100.4"><metadata
   id="metadata35"><rdf:RDF><cc:Work
       rdf:about=""><dc:format>image/svg+xml</dc:format><dc:type
         rdf:resource="http://purl.org/dc/dcmitype/StillImage" /><dc:title></dc:title></cc:Work></rdf:RDF></metadata><defs
   id="defs33" /><sodipodi:namedview
   pagecolor="#000000"
   bordercolor="#666666"
   borderopacity="1"
   objecttolerance="10"
   gridtolerance="10"
   guidetolerance="10"
   inkscape:pageopacity="0"
   inkscape:pageshadow="2"
   inkscape:window-width="1088"
   inkscape:window-height="829"
   id="namedview31"
   showgrid="false"
   showborder="true"
   inkscape:zoom="4.4402633"
   inkscape:cx="49.95"
   inkscape:cy="60.059326"
   inkscape:window-x="2624"
   inkscape:window-y="43"
   inkscape:window-maximized="0"
   inkscape:current-layer="Layer_1"
   inkscape:pagecheckerboard="true"
   fit-margin-top="0"
   fit-margin-left="0"
   fit-margin-right="0"
   fit-margin-bottom="0" />
<style
   type="text/css"
   id="style2">
	.st0{fill:#EE312F;}
</style>
<path
   d="M 14.299999,0 C 14.299999,0 0,0 0,14.299997 v 71.800001 c 0,0 0,14.300002 14.299999,14.300002 h 71.7 c 0,0 14.300001,0 14.300001,-14.300002 V 14.399997 c 0,0 0,-14.299997 -14.300001,-14.299997 h -71.7 z"
   id="path4"
   inkscape:connector-curvature="0" />
<g
   id="g12"
   transform="translate(-4.3000001,-3.8008505)">
	<defs
   id="defs7">
		<rect
   id="SVGID_1_"
   x="3.3"
   y="1.7"
   width="102.4"
   height="102.4" />
	</defs>
	<clipPath
   id="SVGID_2_">
		<use
   xlink:href="#SVGID_1_"
   style="overflow:visible"
   id="use9"
   x="0"
   y="0"
   width="100%"
   height="100%" />
	</clipPath>
</g>
<path
   class="st0"
   d="m 64.099999,41.299998 v 0 c -1.1,0 -2.2,0 -3.3,0 -1.1,0 -2.2,0 -3.3,0 -2.6,0.1 -3.8,2.1 -2.5,4.4 2.2,3.8 4.4,7.7 6.7,11.5 1.3,2.1 3.7,2.1 5,0 1.6,-2.7 3.2,-5.4 4.7,-8.1 0.6,-1.1 1.3,-2.2 1.9,-3.2 1.3,-2.3 0.1,-4.4 -2.5,-4.5 -0.3,0 -0.6,0 -0.9,0 -1.9,-0.1 -3.9,-0.1 -5.8,-0.1"
   id="path14"
   inkscape:connector-curvature="0"
   style="fill:#ee312f" />
<path
   class="st0"
   d="m 36.299999,41.299998 v 0 c -2.2,0 -4.4,0 -6.7,0 -2.6,0 -3.9,2.4 -2.5,4.5 2.3,3.7 4.4,7.5 6.6,11.2 0.3,0.5 0.6,0.9 1.1,1.3 1.4,0.9 3,0.5 3.9,-1 2.3,-3.9 4.6,-7.8 6.9,-11.7 1,-1.8 0.1,-3.7 -1.9,-4.1 -0.5,-0.1 -1,-0.1 -1.5,-0.1 -2.1,-0.1 -4,-0.1 -5.9,-0.1"
   id="path16"
   inkscape:connector-curvature="0"
   style="fill:#ee312f" />
<path
   class="st0"
   d="m 36.099999,38.699998 c 2.1,0 4.2,0 6.4,0 0.2,0 0.3,0 0.5,0 2.5,-0.1 3.7,-2.2 2.5,-4.3 -2.2,-3.899999 -4.5,-7.700001 -6.8,-11.600001 -0.3,-0.6 -0.8,-1 -1.5,-1.3 -1.4,-0.5 -2.7,0 -3.5,1.5 -2.2,3.7 -4.3,7.500002 -6.5,11.200001 -1.4,2.3 -0.2,4.4 2.5,4.4 2.1,0.2 4.2,0.1 6.4,0.1"
   id="path18"
   inkscape:connector-curvature="0"
   style="fill:#ee312f" />
<path
   class="st0"
   d="m 64.099999,38.699998 v 0 c 1.1,0 2.2,0 3.3,0 1.2,0 2.3,0 3.5,0 2.5,-0.1 3.7,-2.1 2.5,-4.3 -2.2,-3.899999 -4.6,-7.800001 -6.8,-11.700001 -0.3,-0.6 -0.8,-0.9 -1.3,-1.1 -1.4,-0.5 -2.7,-0.1 -3.6,1.4 -1.2,1.9 -2.3,3.9 -3.4,5.900002 -1.1,1.9 -2.2,3.699999 -3.3,5.599999 -0.6,1 -0.8,2.1 0,3.1 0.6,0.8 1.4,1.2 2.5,1.2 2.2,-0.1 4.4,-0.1 6.6,-0.1"
   id="path20"
   inkscape:connector-curvature="0"
   style="fill:#ee312f" />
<path
   class="st0"
   d="m 22.299999,17.299997 c -2.2,0 -4.4,0 -6.7,0 -2.6,0 -3.8,2 -2.6,4.3 0.7,1.4 1.6,2.7 2.3,4.1 1.4,2.4 2.8,4.900002 4.3,7.300001 1.4,2.3 3.8,2.3 5.1,0 0.3,-0.6 0.7,-1.1 1,-1.7 1.9,-3.200001 3.8,-6.400001 5.6,-9.700001 1.3,-2.3 0,-4.3 -2.6,-4.3 -2.1,0 -4.2,0 -6.4,0"
   id="path22"
   inkscape:connector-curvature="0"
   style="fill:#ee312f" />
<path
   class="st0"
   d="m 87.899999,20.199997 c 0,-1.6 -1.2,-2.9 -2.8,-2.9 -4.6,0 -9.2,-0.1 -13.7,0 -2.3,0 -3.5,2.2 -2.4,4.3 0.3,0.5 0.6,1 0.9,1.6 2,3.3 4,6.700002 5.8,10.000001 1,1.8 3.7,2.2 5,-0.1 2.2,-3.799999 4.4,-7.700001 6.6,-11.500001 0.3,-0.5 0.5,-1 0.6,-1.4"
   id="path24"
   inkscape:connector-curvature="0"
   style="fill:#ee312f" />
<path
   class="st0"
   d="m 50.199999,65.399998 v 0 c -2.3,0 -4.6,0 -7,0 -1.6,0 -2.7,1 -2.8,2.4 -0.1,0.8 0.3,1.6 0.7,2.3 0.7,1.2 1.4,2.4 2.1,3.6 1.4,2.4 2.8,4.8 4.2,7.2 0.6,1.1 1.4,1.8 2.8,1.8 1.2,0 1.9,-0.7 2.5,-1.7 2.2,-3.8 4.3,-7.6 6.6,-11.4 1,-1.7 0.2,-4.4 -2.5,-4.3 -2.1,0.1 -4.4,0.1 -6.6,0.1"
   id="path26"
   inkscape:connector-curvature="0"
   style="fill:#ee312f" />
<path
   class="st0"
   d="m 50.199999,62.699998 v 0 c 2.2,0 4.4,-0.1 6.6,0 2.6,0.1 3.6,-2.6 2.5,-4.3 -0.5,-0.8 -1,-1.7 -1.4,-2.5 -1.7,-3 -3.5,-6 -5.3,-9 -1.3,-2.2 -3.6,-2.2 -5,0 -0.9,1.4 -1.7,2.9 -2.6,4.4 -1.3,2.3 -2.7,4.6 -4,6.9 -0.4,0.7 -0.7,1.3 -0.6,2.1 0.2,1.4 1.3,2.3 2.8,2.3 2.4,0.1 4.7,0.1 7,0.1"
   id="path28"
   inkscape:connector-curvature="0"
   style="fill:#ee312f" />
</svg>