<?xml version="1.0" encoding="utf-8"?>
<!-- Generator: Adobe Illustrator 22.1.0, SVG Export Plug-In . SVG Version: 6.00 Build 0)  -->
<svg version="1.1" id="Layer_1" xmlns="http://www.w3.org/2000/svg" xmlns:xlink="http://www.w3.org/1999/xlink" x="0px" y="0px"
	 viewBox="0 0 50 50" style="enable-background:new 0 0 50 50;" xml:space="preserve">
<style type="text/css">
	.st0{fill:#EE312F;}
</style>
<path d="M7.8,0.7c0,0-6.9,0-6.9,6.9v34.6c0,0,0,6.9,6.9,6.9h34.5c0,0,6.9,0,6.9-6.9V7.7c0,0,0-6.9-6.9-6.9L7.8,0.7L7.8,0.7z"/>
<path class="st0" d="M31.7,20.6L31.7,20.6c-0.5,0-1.1,0-1.6,0c-0.5,0-1.1,0-1.6,0c-1.3,0-1.8,1-1.2,2.1c1.1,1.8,2.1,3.7,3.2,5.5
	c0.6,1,1.8,1,2.4,0c0.8-1.3,1.5-2.6,2.3-3.9c0.3-0.5,0.6-1.1,0.9-1.5c0.6-1.1,0-2.1-1.2-2.2c-0.1,0-0.3,0-0.4,0
	C33.6,20.6,32.7,20.6,31.7,20.6"/>
<path class="st0" d="M18.4,20.6L18.4,20.6c-1.1,0-2.1,0-3.2,0c-1.3,0-1.9,1.2-1.2,2.2c1.1,1.8,2.1,3.6,3.2,5.4
	c0.1,0.2,0.3,0.4,0.5,0.6c0.7,0.4,1.4,0.2,1.9-0.5c1.1-1.9,2.2-3.8,3.3-5.6c0.5-0.9,0-1.8-0.9-2c-0.2,0-0.5,0-0.7,0
	C20.2,20.6,19.3,20.6,18.4,20.6"/>
<path class="st0" d="M18.3,19.4c1,0,2,0,3.1,0c0.1,0,0.1,0,0.2,0c1.2,0,1.8-1.1,1.2-2.1c-1.1-1.9-2.2-3.7-3.3-5.6
	c-0.1-0.3-0.4-0.5-0.7-0.6c-0.7-0.2-1.3,0-1.7,0.7C16,13.6,15,15.4,14,17.2c-0.7,1.1-0.1,2.1,1.2,2.1C16.2,19.4,17.2,19.4,18.3,19.4
	"/>
<path class="st0" d="M31.7,19.4L31.7,19.4c0.5,0,1.1,0,1.6,0c0.6,0,1.1,0,1.7,0c1.2,0,1.8-1,1.2-2.1c-1.1-1.9-2.2-3.8-3.3-5.6
	c-0.1-0.3-0.4-0.4-0.6-0.5c-0.7-0.2-1.3,0-1.7,0.7c-0.6,0.9-1.1,1.9-1.6,2.8c-0.5,0.9-1.1,1.8-1.6,2.7c-0.3,0.5-0.4,1,0,1.5
	c0.3,0.4,0.7,0.6,1.2,0.6C29.6,19.4,30.7,19.4,31.7,19.4"/>
<path class="st0" d="M11.6,9.1c-1.1,0-2.1,0-3.2,0c-1.3,0-1.8,1-1.3,2.1c0.3,0.7,0.8,1.3,1.1,2c0.7,1.2,1.3,2.4,2.1,3.5
	c0.7,1.1,1.8,1.1,2.5,0c0.1-0.3,0.3-0.5,0.5-0.8c0.9-1.5,1.8-3.1,2.7-4.7c0.6-1.1,0-2.1-1.3-2.1C13.7,9.1,12.7,9.1,11.6,9.1"/>
<path class="st0" d="M43.2,10.5c0-0.8-0.6-1.4-1.3-1.4c-2.2,0-4.4,0-6.6,0c-1.1,0-1.7,1.1-1.2,2.1c0.1,0.2,0.3,0.5,0.4,0.8
	c1,1.6,1.9,3.2,2.8,4.8c0.5,0.9,1.8,1.1,2.4,0c1.1-1.8,2.1-3.7,3.2-5.5C43.1,10.9,43.1,10.7,43.2,10.5"/>
<path class="st0" d="M25,32.2L25,32.2c-1.1,0-2.2,0-3.4,0c-0.8,0-1.3,0.5-1.3,1.2c0,0.4,0.1,0.8,0.3,1.1c0.3,0.6,0.7,1.2,1,1.7
	c0.7,1.2,1.3,2.3,2,3.5c0.3,0.5,0.7,0.9,1.3,0.9c0.6,0,0.9-0.3,1.2-0.8c1.1-1.8,2.1-3.7,3.2-5.5c0.5-0.8,0.1-2.1-1.2-2.1
	C27.2,32.2,26.1,32.2,25,32.2"/>
<path class="st0" d="M25,30.9L25,30.9c1.1,0,2.1,0,3.2,0c1.3,0,1.7-1.3,1.2-2.1c-0.2-0.4-0.5-0.8-0.7-1.2c-0.8-1.4-1.7-2.9-2.6-4.3
	c-0.6-1.1-1.7-1.1-2.4,0c-0.4,0.7-0.8,1.4-1.3,2.1c-0.6,1.1-1.3,2.2-1.9,3.3c-0.2,0.3-0.3,0.6-0.3,1c0.1,0.7,0.6,1.1,1.3,1.1
	C22.8,30.9,23.9,30.9,25,30.9"/>
</svg>
