<?xml version="1.0" encoding="utf-8"?>
<!-- Generator: Adobe Illustrator 22.1.0, SVG Export Plug-In . SVG Version: 6.00 Build 0)  -->
<svg version="1.1" id="Layer_1" xmlns="http://www.w3.org/2000/svg" xmlns:xlink="http://www.w3.org/1999/xlink" x="0px" y="0px"
	 viewBox="0 0 223.6 81.9" style="enable-background:new 0 0 223.6 81.9;" xml:space="preserve">
<style type="text/css">
	.st0{fill:#FFFFFF;}
	.st1{fill:#ED1C24;}
</style>
<path class="st0" d="M67.8,62.7c0,7.7-7.5,7.9-7.9,7.9H16c-7.7,0-7.8-7.5-7.9-7.9V18.8c0-7.7,7.5-7.8,7.9-7.9h43.9
	c7.7,0,7.8,7.5,7.9,7.9V62.7z"/>
<path class="st1" d="M41.1,40.2c1.4,2.5,2.9,5,4.4,7.5c0.8,1.4,2.4,1.4,3.2,0c1-1.8,2.1-3.5,3.1-5.3c0.4-0.7,0.9-1.4,1.3-2.1
	c0.9-1.5,0.1-2.9-1.7-3c-0.2,0-0.4,0-0.6,0c-1.3,0-2.5,0-3.8,0v0c-0.7,0-1.5,0-2.2,0c-0.7,0-1.5,0-2.2,0
	C41,37.4,40.3,38.7,41.1,40.2 M31.6,54.7c0,0.6,0.2,1,0.5,1.5c0.5,0.8,0.9,1.6,1.4,2.4c0.9,1.6,1.8,3.1,2.7,4.7
	c0.4,0.7,0.9,1.2,1.8,1.1c0.8,0,1.3-0.5,1.6-1.1c1.4-2.5,2.9-5,4.3-7.4c0.7-1.1,0.1-2.9-1.7-2.8c-1.5,0.1-2.9,0-4.4,0v0
	c-1.5,0-3,0-4.6,0C32.4,53.1,31.7,53.8,31.6,54.7 M25.6,24.4c0.8-1.5,0-2.8-1.7-2.8c-1.4,0-2.8,0-4.3,0c-1.5,0-2.9,0-4.4,0
	c-1.7,0-2.5,1.3-1.7,2.8c0.5,0.9,1,1.8,1.5,2.7c0.9,1.6,1.8,3.2,2.8,4.8c0.9,1.5,2.5,1.5,3.4,0c0.2-0.4,0.4-0.7,0.6-1.1
	C23.2,28.6,24.4,26.5,25.6,24.4 M34.8,32.8c-1.5-2.6-3-5.1-4.5-7.6c-0.2-0.4-0.5-0.7-1-0.8c-0.9-0.3-1.7,0-2.3,1
	c-1.4,2.5-2.9,4.9-4.3,7.4c-0.9,1.5-0.1,2.9,1.6,2.9c1.4,0,2.8,0,4.3,0c1.4,0,2.8,0,4.2,0c0.1,0,0.2,0,0.3,0
	C34.8,35.6,35.6,34.2,34.8,32.8 M34.8,40.1c0.7-1.2,0.1-2.5-1.3-2.7c-0.3-0.1-0.7-0.1-1-0.1c-1.3,0-2.5,0-3.8,0v0
	c-1.5,0-2.9,0-4.4,0c-1.7,0-2.5,1.6-1.7,3c1.5,2.4,2.9,4.9,4.3,7.4c0.2,0.3,0.4,0.6,0.7,0.8c0.9,0.6,2,0.3,2.6-0.7
	C31.9,45.2,33.4,42.7,34.8,40.1 M43,46.9c-1.1-2-2.3-4-3.4-5.9c-0.9-1.4-2.4-1.4-3.2,0c-0.6,0.9-1.1,1.9-1.7,2.9
	c-0.9,1.5-1.8,3-2.6,4.5c-0.2,0.4-0.5,0.9-0.4,1.4c0.2,0.9,0.8,1.5,1.8,1.5c1.5,0,3,0,4.6,0v0c1.5,0,2.9,0,4.4,0
	c1.7,0.1,2.4-1.7,1.6-2.8C43.6,48,43.3,47.5,43,46.9 M53.2,32.8c-1.5-2.6-3-5.1-4.5-7.7c-0.2-0.4-0.5-0.6-0.9-0.8
	c-0.9-0.4-1.8,0-2.3,0.9c-0.8,1.3-1.5,2.6-2.2,3.8c-0.7,1.2-1.4,2.5-2.1,3.7c-0.4,0.7-0.5,1.4,0,2c0.4,0.5,0.9,0.8,1.6,0.8
	c1.5,0,2.9,0,4.4,0v0c0.7,0,1.5,0,2.2,0c0.8,0,1.5,0,2.3,0C53.2,35.6,54,34.2,53.2,32.8 M62.3,24.4c0.2-0.3,0.3-0.6,0.4-0.9
	c0-1-0.8-1.9-1.8-1.9c-3,0-6,0-9,0c-1.5,0-2.3,1.4-1.6,2.8c0.2,0.3,0.4,0.7,0.6,1c1.3,2.2,2.6,4.4,3.8,6.6c0.6,1.2,2.4,1.4,3.3-0.1
	C59.4,29.4,60.9,26.9,62.3,24.4 M67.8,62.7c0,7.7-7.5,7.9-7.9,7.9H16c-7.7,0-7.8-7.5-7.9-7.9V18.8c0-7.7,7.5-7.8,7.9-7.9h43.9
	c7.7,0,7.8,7.5,7.9,7.9V62.7z M69.6,62.7V18.8c0-0.1-0.1-9.7-9.7-9.7H16c-0.1,0-9.7,0.1-9.7,9.7v43.9c0,0.1,0.1,9.7,9.7,9.7h43.9
	C60,72.4,69.6,72.3,69.6,62.7"/>
<path class="st0" d="M159.6,61.9l0.4-1.7l0.4,1.7H159.6z M159.6,57.9l-1.6,6.8h0.9l0.4-1.9h1.2l0.4,1.9h0.9l-1.6-6.8H159.6z
	 M153.6,58.8h0.5c0.1,0,0.2,0,0.3,0c0.1,0,0.2,0.1,0.3,0.1c0.1,0.1,0.1,0.2,0.2,0.3c0,0.1,0.1,0.3,0.1,0.6v2.9c0,0.3,0,0.5-0.1,0.6
	c0,0.1-0.1,0.3-0.2,0.3c-0.1,0.1-0.2,0.1-0.3,0.1c-0.1,0-0.2,0-0.3,0h-0.5V58.8z M154.1,57.9h-1.4v6.8h1.4c0.6,0,1-0.2,1.3-0.5
	c0.3-0.3,0.4-0.8,0.4-1.4v-2.9c0-0.6-0.1-1.1-0.4-1.4C155.1,58.1,154.7,57.9,154.1,57.9 M137.7,58.8h0.5c0.1,0,0.3,0,0.4,0
	c0.1,0,0.2,0.1,0.3,0.2c0.1,0.1,0.1,0.2,0.2,0.3c0,0.1,0.1,0.3,0.1,0.5c0,0.4-0.1,0.7-0.2,0.9c0,0-0.1,0.1-0.2,0.1
	c-0.1,0.1-0.2,0.1-0.5,0.1h-0.4h-0.1V58.8z M138.3,57.9h-1.4v6.8h0.9v-2.9h0.1h0.4c0.6,0,0.9,0.3,0.9,0.9v2h0.9v-2
	c0-0.3,0-0.5-0.1-0.8c-0.1-0.2-0.2-0.4-0.4-0.6c0,0,0,0,0.1,0c0,0,0,0,0,0c0.3-0.3,0.4-0.8,0.4-1.4c0-0.6-0.1-1.1-0.4-1.4
	C139.3,58,138.9,57.9,138.3,57.9 M132.7,61.9l0.4-1.7l0.4,1.7H132.7z M132.8,57.9l-1.6,6.8h0.9l0.4-1.9h1.2l0.4,1.9h0.9l-1.6-6.8
	H132.8z M91.6,51L98,21.6h-1.8l-6,27.1l-6-27.1h-2L88.7,51H91.6z M107.6,51h11.6v-1.8h-9.6V37h8v-1.8h-8V23.4h9.6v-1.8h-11.6V51z
	 M120.2,60.2c0-0.1-0.1-0.2-0.1-0.4c0-0.1,0-0.2,0-0.3c0-0.1,0-0.2,0.1-0.4c0.1-0.1,0.1-0.2,0.2-0.3c0.1-0.1,0.2-0.1,0.4-0.1
	c0.1,0,0.1,0,0.2,0c0.1,0,0.2,0.1,0.2,0.1c0.1,0.1,0.1,0.2,0.2,0.3s0.1,0.4,0.1,0.6v0.4h0.9v-0.4c0-0.6-0.1-1.1-0.4-1.4
	c-0.1-0.1-0.2-0.2-0.4-0.4c-0.2-0.1-0.5-0.2-0.8-0.2c-0.2,0-0.5,0-0.7,0.1c-0.2,0.1-0.4,0.2-0.5,0.4c-0.1,0.2-0.3,0.4-0.3,0.6
	c-0.1,0.2-0.1,0.5-0.1,0.8c0,0.6,0.2,1,0.6,1.4c0.1,0.1,0.3,0.2,0.4,0.3c0.1,0.1,0.3,0.1,0.4,0.2l0.2,0.1c0.1,0,0.2,0.1,0.3,0.1
	c0.1,0.1,0.2,0.1,0.3,0.2c0.1,0.1,0.1,0.2,0.2,0.3c0,0.1,0.1,0.2,0.1,0.4c0,0.1,0,0.2,0,0.3c0,0.1,0,0.2-0.1,0.3
	c-0.1,0.1-0.1,0.2-0.2,0.3c-0.1,0.1-0.2,0.1-0.4,0.1c-0.2,0-0.3,0-0.4-0.1c-0.1,0-0.1-0.1-0.2-0.1c-0.1-0.2-0.2-0.5-0.2-0.9v-0.4
	h-0.9v0.4c0,0.6,0.1,1.1,0.4,1.4c0.3,0.3,0.7,0.5,1.2,0.5c0.5,0,0.9-0.2,1.2-0.6c0.3-0.3,0.4-0.8,0.4-1.3c0-0.6-0.2-1-0.6-1.4
	c-0.1-0.1-0.3-0.2-0.4-0.3c-0.2-0.1-0.3-0.1-0.4-0.2l-0.1-0.1c-0.1,0-0.2-0.1-0.3-0.2c-0.1-0.1-0.2-0.1-0.3-0.2
	C120.3,60.4,120.3,60.3,120.2,60.2 M128,64.7h0.9v-6.8h-0.8l-1.4,4.8l-1.4-4.8h-0.8v6.8h0.9v-3.2l0.9,3.2h0.7l0.9-3.2V64.7z M140,51
	h2.1V21.6h-1.8v24.8l-8.8-24.8H129V51h1.8V24.8L140,51z M144.7,58.8h1.5v-0.9h-3.8v0.9h1.5v5.9h0.9V58.8z M163,43.9
	c0,1.7-0.4,3.1-1.1,4c-0.7,1-1.9,1.5-3.5,1.5c-1.5,0-2.7-0.5-3.4-1.5c-0.7-1-1.1-2.3-1.1-4V28.7c0-1.7,0.4-3.1,1.1-4
	c0.7-1,1.9-1.5,3.4-1.5c1.6,0,2.7,0.5,3.5,1.5c0.7,1,1.1,2.3,1.1,4V43.9z M163.3,49.2c1.1-1.3,1.6-3.1,1.6-5.4v-15
	c0-2.3-0.5-4.1-1.6-5.4c-1.1-1.3-2.7-2-4.9-2c-2.1,0-3.7,0.7-4.8,2c-1.1,1.4-1.6,3.2-1.6,5.4v15c0,2.2,0.5,4,1.6,5.4
	c1.1,1.4,2.7,2,4.8,2C160.6,51.2,162.2,50.6,163.3,49.2 M166.1,58.8h1.5v-0.9h-3.8v0.9h1.5v5.9h0.9V58.8z M171.9,61.9h-0.8l0.4-1.7
	L171.9,61.9z M172.5,64.7h0.9l-1.6-6.8h-0.7l-1.6,6.8h0.9l0.4-1.9h1.2L172.5,64.7z M185.7,43.9c0,1.7-0.4,3.1-1.1,4
	c-0.7,1-1.9,1.5-3.5,1.5c-1.5,0-2.7-0.5-3.4-1.5c-0.7-1-1.1-2.3-1.1-4V28.7c0-1.7,0.4-3.1,1.1-4c0.7-1,1.9-1.5,3.4-1.5
	c1.6,0,2.7,0.5,3.5,1.5c0.7,1,1.1,2.3,1.1,4V43.9z M186,49.2c1.1-1.3,1.6-3.1,1.6-5.4v-15c0-2.3-0.5-4.1-1.6-5.4
	c-1.1-1.3-2.7-2-4.9-2c-2.1,0-3.7,0.7-4.8,2c-1.1,1.4-1.6,3.2-1.6,5.4v15c0,2.2,0.5,4,1.6,5.4c1.1,1.4,2.7,2,4.8,2
	C183.3,51.2,184.9,50.6,186,49.2 M210.4,23.4v-1.8h-13.9v1.8h6V51h1.9V23.4H210.4z"/>
</svg>
