<?xml version="1.0" encoding="utf-8"?>
<!-- Generator: Adobe Illustrator 22.1.0, SVG Export Plug-In . SVG Version: 6.00 Build 0)  -->
<svg version="1.1" id="Capa_1" xmlns="http://www.w3.org/2000/svg" xmlns:xlink="http://www.w3.org/1999/xlink" x="0px" y="0px"
	 viewBox="0 0 512 512" style="enable-background:new 0 0 512 512;" xml:space="preserve">
<style type="text/css">
	.st0{fill:#FF9102;}
	.st1{fill:url(#SVGID_1_);}
	.st2{fill:url(#SVGID_2_);}
	.st3{fill:url(#SVGID_3_);}
	.st4{fill:url(#SVGID_4_);}
	.st5{fill:url(#SVGID_5_);}
	.st6{fill:url(#SVGID_6_);}
</style>
<path class="st0" d="M242.8,6.5L0.4,202.3v36.5H256h255.6v-36.5L269.2,6.5C261.5,0.2,250.5,0.2,242.8,6.5z"/>
<linearGradient id="SVGID_1_" gradientUnits="userSpaceOnUse" x1="49.1756" y1="-29.9133" x2="509.7856" y2="-490.5323" gradientTransform="matrix(1.0667 0 0 -1.0667 16.3399 1.5334)">
	<stop  offset="0" style="stop-color:#FFFFFF"/>
	<stop  offset="1" style="stop-color:#E8EFEE"/>
</linearGradient>
<path class="st1" d="M469.5,441.3h-427c-11.6,0-21.1-9.4-21.1-21.1V21.1C21.4,9.4,30.9,0,42.5,0h427c11.6,0,21.1,9.4,21.1,21.1
	v399.1C490.6,431.8,481.1,441.3,469.5,441.3z"/>
<linearGradient id="SVGID_2_" gradientUnits="userSpaceOnUse" x1="448.4302" y1="-377.99" x2="-16.2598" y2="-415.4001" gradientTransform="matrix(1.0667 0 0 -1.0667 16.3399 1.5334)">
	<stop  offset="0" style="stop-color:#C2CECE;stop-opacity:0"/>
	<stop  offset="0.179" style="stop-color:#AFBCBC;stop-opacity:0.179"/>
	<stop  offset="1" style="stop-color:#5B6A6A"/>
</linearGradient>
<path class="st2" d="M490.6,408.5v8.2c0,13.6-11,24.6-24.6,24.6H46c-13.6,0-24.6-11-24.6-24.6v-8.2H490.6z"/>
<linearGradient id="SVGID_3_" gradientUnits="userSpaceOnUse" x1="224.6275" y1="-280.8562" x2="224.6275" y2="-458.7663" gradientTransform="matrix(1.0667 0 0 -1.0667 16.3399 1.5334)">
	<stop  offset="0" style="stop-color:#FFC200"/>
	<stop  offset="0.268" style="stop-color:#FFBB00"/>
	<stop  offset="0.659" style="stop-color:#FFA801"/>
	<stop  offset="1" style="stop-color:#FF9102"/>
</linearGradient>
<path class="st3" d="M511.6,202.8v288.1c0,11.6-9.4,21.1-21.1,21.1H21.4c-11.6,0-21.1-9.4-21.1-21.1V202.8l258.5,203.9L511.6,202.8z
	"/>
<linearGradient id="SVGID_4_" gradientUnits="userSpaceOnUse" x1="225.6118" y1="-416.6562" x2="225.6118" y2="-478.3763" gradientTransform="matrix(1.0667 0 0 -1.0667 16.3399 1.5334)">
	<stop  offset="0" style="stop-color:#FFC200"/>
	<stop  offset="0.268" style="stop-color:#FFBB00"/>
	<stop  offset="0.659" style="stop-color:#FFA801"/>
	<stop  offset="1" style="stop-color:#FF9102"/>
</linearGradient>
<path class="st4" d="M508.8,501.5L272,310.6c-7.7-6.2-18.7-6.2-26.4,0L5.2,504.4c3.9,4.7,9.7,7.6,16.2,7.6h469.2
	C498.4,512,505.2,507.8,508.8,501.5z"/>
<linearGradient id="SVGID_5_" gradientUnits="userSpaceOnUse" x1="113.0009" y1="-93.7669" x2="-224.099" y2="243.3229" gradientTransform="matrix(1.0667 0 0 -1.0667 16.3399 1.5334)">
	<stop  offset="0" style="stop-color:#C2CECE;stop-opacity:0"/>
	<stop  offset="0.179" style="stop-color:#AFBCBC;stop-opacity:0.179"/>
	<stop  offset="1" style="stop-color:#5B6A6A"/>
</linearGradient>
<path class="st5" d="M28,426.8V27.6c0-11.6,9.4-21,21.1-21h427c4.1,0,8,1.2,11.2,3.3C483.6,3.9,477,0,469.5,0h-427
	C30.9,0,21.4,9.4,21.4,21.1v399.1c0,7.5,3.9,14.1,9.8,17.8C29.2,434.8,28,430.9,28,426.8z"/>
<path d="M254.4,218.5h15.5V234h-15.5V218.5z"/>
<path d="M212.1,218.5h15.5V234h-15.5V218.5z"/>
<path d="M169.2,133.9h15.5v15.5h-15.5V133.9z"/>
<path d="M212.1,133.9h15.5v15.5h-15.5V133.9z"/>
<path d="M212.1,176.2h15.5v15.5h-15.5V176.2z"/>
<path d="M374.9,73.9c0-2.9-1.1-5.7-3.2-7.7c-2-2-4.8-3.2-7.7-3.2h-12.1v11.5c0,2.7-2.4,5.3-5.1,5.3h-30.3c-2.7,0-5-2.5-5-5.3V63.1
	h-98.8v11.5c0,2.7-1.9,5.3-4.7,5.3h-30.3c-2.7,0-4.8-2.5-4.8-5.3V63.1h-12.8c-2.9,0-5.6,1.1-7.7,3.2c-2,2-3.2,4.8-3.1,7.7v25.2
	h225.6L374.9,73.9L374.9,73.9z"/>
<path d="M169.2,176.2h15.5v15.5h-15.5V176.2z"/>
<path d="M182.9,43.8h19.9v26.1h-19.9V43.8z"/>
<path d="M321.5,43.8H342v26.1h-20.5V43.8z"/>
<path d="M254.4,176.2h15.5v15.5h-15.5V176.2z"/>
<path d="M339.5,133.9H355v15.5h-15.5V133.9z"/>
<path d="M169.2,218.5h15.5V234h-15.5V218.5z"/>
<path d="M296.6,133.9h15.5v15.5h-15.5V133.9z"/>
<path d="M339.5,176.2H355v15.5h-15.5V176.2z"/>
<path d="M296.6,176.2h15.5v15.5h-15.5V176.2z"/>
<path d="M374.9,200.9V109H149.3v135.6c-0.1,6,4.8,11,10.8,11.1h151.7C316.3,224.3,343.2,200.9,374.9,200.9z M329.6,129
	c0-2.7,2.2-5,5-5H360c2.7,0,5,2.2,5,5v25.5c0,2.7-2.2,5-5,5h-25.5c-2.7,0-5-2.2-5-5V129H329.6z M194.7,239c0,2.7-2.2,5-5,5h-25.5
	c-2.7,0-5-2.2-5-5v-25.5c0-2.7,2.2-5,5-5h25.5c2.7,0,5,2.2,5,5V239z M194.7,196.7c0,2.7-2.2,5-5,5h-25.5c-2.7,0-5-2.2-5-5v-25.5
	c0-2.7,2.2-5,5-5h25.5c2.7,0,5,2.2,5,5V196.7z M194.7,154.4c0,2.7-2.2,5-5,5h-25.5c-2.7,0-5-2.2-5-5V129c0-2.7,2.2-5,5-5h25.5
	c2.7,0,5,2.2,5,5V154.4z M237.6,239c0,2.7-2.2,5-5,5h-25.5c-2.7,0-5-2.2-5-5v-25.5c0-2.7,2.2-5,5-5h25.5c2.7,0,5,2.2,5,5V239z
	 M237.6,196.7c0,2.7-2.2,5-5,5h-25.5c-2.7,0-5-2.2-5-5v-25.5c0-2.7,2.2-5,5-5h25.5c2.7,0,5,2.2,5,5V196.7z M237.6,154.4
	c0,2.7-2.2,5-5,5h-25.5c-2.7,0-5-2.2-5-5V129c0-2.7,2.2-5,5-5h25.5c2.7,0,5,2.2,5,5V154.4z M279.8,239c0,2.7-2.2,5-5,5h-25.5
	c-2.7,0-5-2.2-5-5v-25.5c0-2.7,2.2-5,5-5h25.5c2.7,0,5,2.2,5,5V239z M279.8,196.7c0,2.7-2.2,5-5,5h-25.5c-2.7,0-5-2.2-5-5v-25.5
	c0-2.7,2.2-5,5-5h25.5c2.7,0,5,2.2,5,5V196.7z M279.8,154.4c0,2.7-2.2,5-5,5h-25.5c-2.7,0-5-2.2-5-5V129c0-2.7,2.2-5,5-5h25.5
	c2.7,0,5,2.2,5,5V154.4z M322.1,196.7c0,2.7-2.2,5-5,5h-25.5c-2.7,0-5-2.2-5-5v-25.5c0-2.7,2.2-5,5-5h25.5c2.7,0,5,2.2,5,5V196.7z
	 M322.1,154.4c0,2.7-2.2,5-5,5h-25.5c-2.7,0-5-2.2-5-5V129c0-2.7,2.2-5,5-5h25.5c2.7,0,5,2.2,5,5V154.4z M329.6,171.2
	c0-2.7,2.2-5,5-5H360c2.7,0,5,2.2,5,5v25.5c0,2.7-2.2,5-5,5h-25.5c-2.7,0-5-2.2-5-5v-25.5H329.6z"/>
<linearGradient id="SVGID_6_" gradientUnits="userSpaceOnUse" x1="321.1" y1="249.3" x2="429.1" y2="249.3" gradientTransform="matrix(1 0 0 -1 0 514)">
	<stop  offset="0" style="stop-color:#D63305"/>
	<stop  offset="0.366" style="stop-color:#CF3004"/>
	<stop  offset="0.899" style="stop-color:#BC2602"/>
	<stop  offset="1" style="stop-color:#B72401"/>
</linearGradient>
<path class="st6" d="M375.1,210.9c-29.8,0-54,24.2-54,53.8c0,29.7,24.2,53.8,54,53.8s54-24.2,54-53.8S404.9,210.9,375.1,210.9z
	 M381.2,266.3c0,1.3-0.5,2.6-1.4,3.5l-16,16.2c-0.9,0.9-2.2,1.5-3.5,1.4c-1.3,0-2.6-0.5-3.5-1.4c-1.9-1.9-2-5.1-0.1-7l14.5-14.7
	v-30.4c0-2.7,2.2-5,5-5s5,2.2,5,5V266.3L381.2,266.3z"/>
<path d="M254.4,133.9h15.5v15.5h-15.5V133.9z"/>
</svg>
