<?xml version="1.0" encoding="utf-8"?>
<!-- Generator: Adobe Illustrator 22.1.0, SVG Export Plug-In . SVG Version: 6.00 Build 0)  -->
<svg version="1.1" id="Capa_1" xmlns="http://www.w3.org/2000/svg" xmlns:xlink="http://www.w3.org/1999/xlink" x="0px" y="0px"
	 viewBox="0 0 512 512" style="enable-background:new 0 0 512 512;" xml:space="preserve">
<style type="text/css">
	.st0{fill:#FF9102;}
	.st1{fill:url(#SVGID_1_);}
	.st2{fill:url(#SVGID_2_);}
	.st3{fill:url(#SVGID_3_);}
	.st4{fill:url(#SVGID_4_);}
	.st5{fill:url(#SVGID_5_);}
	.st6{fill:#C2CECE;}
	.st7{fill:url(#SVGID_6_);}
</style>
<path class="st0" d="M242.8,6.5L0.4,202.3v36.5H256h255.6v-36.5L269.2,6.5C261.5,0.2,250.5,0.2,242.8,6.5z"/>
<linearGradient id="SVGID_1_" gradientUnits="userSpaceOnUse" x1="55.3035" y1="230.7036" x2="515.9135" y2="-229.9155" gradientTransform="matrix(1.0667 0 0 -1.0667 9.8033 279.5334)">
	<stop  offset="0" style="stop-color:#FFFFFF"/>
	<stop  offset="1" style="stop-color:#E8EFEE"/>
</linearGradient>
<path class="st1" d="M469.5,441.3h-427c-11.6,0-21.1-9.4-21.1-21.1V21.1C21.4,9.4,30.9,0,42.5,0h427c11.6,0,21.1,9.4,21.1,21.1
	v399.1C490.6,431.8,481.1,441.3,469.5,441.3z"/>
<linearGradient id="SVGID_2_" gradientUnits="userSpaceOnUse" x1="454.558" y1="-117.3732" x2="-10.132" y2="-154.7831" gradientTransform="matrix(1.0667 0 0 -1.0667 9.8033 279.5334)">
	<stop  offset="0" style="stop-color:#C2CECE;stop-opacity:0"/>
	<stop  offset="0.179" style="stop-color:#AFBCBC;stop-opacity:0.179"/>
	<stop  offset="1" style="stop-color:#5B6A6A"/>
</linearGradient>
<path class="st2" d="M490.6,408.5v8.2c0,13.6-11,24.6-24.6,24.6H46c-13.6,0-24.6-11-24.6-24.6v-8.2H490.6z"/>
<linearGradient id="SVGID_3_" gradientUnits="userSpaceOnUse" x1="230.7553" y1="-20.2393" x2="230.7553" y2="-198.1493" gradientTransform="matrix(1.0667 0 0 -1.0667 9.8033 279.5334)">
	<stop  offset="0" style="stop-color:#FFC200"/>
	<stop  offset="0.268" style="stop-color:#FFBB00"/>
	<stop  offset="0.659" style="stop-color:#FFA801"/>
	<stop  offset="1" style="stop-color:#FF9102"/>
</linearGradient>
<path class="st3" d="M511.6,202.8v288.1c0,11.6-9.4,21.1-21.1,21.1H21.4c-11.6,0-21.1-9.4-21.1-21.1V202.8l258.5,203.9L511.6,202.8z
	"/>
<linearGradient id="SVGID_4_" gradientUnits="userSpaceOnUse" x1="231.7397" y1="-156.0394" x2="231.7397" y2="-217.7594" gradientTransform="matrix(1.0667 0 0 -1.0667 9.8033 279.5334)">
	<stop  offset="0" style="stop-color:#FFC200"/>
	<stop  offset="0.268" style="stop-color:#FFBB00"/>
	<stop  offset="0.659" style="stop-color:#FFA801"/>
	<stop  offset="1" style="stop-color:#FF9102"/>
</linearGradient>
<path class="st4" d="M508.8,501.5L272,310.6c-7.7-6.2-18.7-6.2-26.4,0L5.2,504.4c3.9,4.7,9.7,7.6,16.2,7.6h469.2
	C498.4,512,505.2,507.8,508.8,501.5z"/>
<linearGradient id="SVGID_5_" gradientUnits="userSpaceOnUse" x1="119.1288" y1="166.8499" x2="-217.9711" y2="503.9398" gradientTransform="matrix(1.0667 0 0 -1.0667 9.8033 279.5334)">
	<stop  offset="0" style="stop-color:#C2CECE;stop-opacity:0"/>
	<stop  offset="0.179" style="stop-color:#AFBCBC;stop-opacity:0.179"/>
	<stop  offset="1" style="stop-color:#5B6A6A"/>
</linearGradient>
<path class="st5" d="M28,426.8V27.6c0-11.6,9.4-21,21.1-21h427c4.1,0,8,1.2,11.2,3.3C483.6,3.9,477,0,469.5,0h-427
	C30.9,0,21.4,9.4,21.4,21.1v399.1c0,7.5,3.9,14.1,9.8,17.8C29.2,434.8,28,430.9,28,426.8z"/>
<g>
	<rect x="121.5" y="60.7" class="st6" width="271.1" height="15.5"/>
	<rect x="121.5" y="122.5" class="st6" width="271.1" height="15.5"/>
	<rect x="121.5" y="185.7" class="st6" width="271.1" height="15.5"/>
	<rect x="121.5" y="248.9" class="st6" width="271.1" height="15.5"/>
</g>
<g>
	<linearGradient id="SVGID_6_" gradientUnits="userSpaceOnUse" x1="158.4" y1="138.2" x2="362.3" y2="138.2">
		<stop  offset="0" style="stop-color:#D63305"/>
		<stop  offset="0.366" style="stop-color:#CF3004"/>
		<stop  offset="0.899" style="stop-color:#BC2602"/>
		<stop  offset="1" style="stop-color:#B72401"/>
	</linearGradient>
	<path class="st7" d="M240.8,209.9l-20,39c-19.4-9.4-34.7-24-46-43.7c-10.9-18.9-16.4-39.4-16.4-61.7c0-17.1,3.6-33.2,10.7-48.3
		c7.4-15.8,17.8-28.6,31-38.3l-17.7-14l56.8-15.1L234,84.3l-16-12.7c-16.4,14.5-24.7,34.7-24.7,60.6
		C193.4,165.4,209.2,191.3,240.8,209.9z M362.3,133.1c0,17.1-3.5,33.2-10.5,48.3c-7.4,15.8-17.8,28.6-31.2,38.3l17.7,13.8
		l-56.8,15.3l5.2-56.5l15.9,12.6c16.4-14.5,24.7-34.7,24.7-60.6c0-33.2-15.8-59.1-47.4-77.8l20-39c19.5,9.4,34.9,24,46.1,43.7
		C356.9,90.3,362.3,110.9,362.3,133.1z"/>
</g>
</svg>
